<?xml version="1.0" standalone="no"?>
<!DOCTYPE svg PUBLIC "-//W3C//DTD SVG 20010904//EN"
 "http://www.w3.org/TR/2001/REC-SVG-20010904/DTD/svg10.dtd">
<svg version="1.0" xmlns="http://www.w3.org/2000/svg"
 width="400.000000pt" height="400.000000pt" viewBox="0 0 400.000000 400.000000"
 preserveAspectRatio="xMidYMid meet">
<metadata>
Created by potrace 1.14, written by Peter Selinger 2001-2017
</metadata>
<g transform="translate(0.000000,400.000000) scale(0.100000,-0.100000)"
fill="#000000" stroke="none">
<path d="M1840 3979 c-368 -34 -685 -149 -982 -355 -145 -101 -374 -328 -473
-469 -206 -292 -320 -587 -360 -930 -20 -175 -19 -304 5 -487 65 -505 307
-943 705 -1276 493 -413 1172 -558 1795 -385 479 133 879 429 1153 854 373
579 409 1349 93 1967 -216 422 -588 765 -1017 937 -301 122 -622 172 -919 144z
m299 -253 c20 -21 21 -27 10 -48 -7 -12 -14 -53 -15 -89 -1 -37 -5 -72 -8 -78
-10 -15 -133 -14 -142 1 -5 8 -10 7 -18 -4 -7 -9 -31 -17 -56 -19 l-45 -4 -3
55 c-3 47 -1 53 10 39 9 -12 23 -15 51 -12 41 6 45 15 23 68 -14 32 -12 75 3
75 4 0 16 -28 27 -62 l20 -63 57 -3 c54 -3 57 -2 57 20 0 13 -5 40 -11 62 -11
39 -6 86 9 86 5 0 19 -11 31 -24z m309 -12 c12 4 24 0 32 -9 11 -13 11 -19 -3
-32 -15 -15 -18 -15 -37 2 -16 14 -23 16 -32 7 -9 -9 -16 -8 -30 5 -17 15 -17
17 -1 35 15 17 18 17 34 2 10 -9 26 -13 37 -10z m-190 -85 c-4 -75 -9 -104
-22 -117 -15 -15 -16 -9 -16 82 0 95 10 136 32 136 7 0 9 -31 6 -101z m-470 2
c22 -79 29 -151 14 -151 -15 0 -63 176 -56 204 3 14 9 26 14 26 4 0 17 -35 28
-79z m-183 39 c9 -15 -7 -40 -25 -40 -24 0 -33 15 -25 39 6 19 39 19 50 1z
m849 -52 c23 -32 20 -68 -10 -111 -23 -34 -29 -38 -62 -35 -54 4 -55 37 -2
111 23 31 45 57 50 57 5 0 16 -10 24 -22z m286 -18 c0 -18 -59 -165 -74 -186
-8 -10 -17 -16 -21 -12 -10 10 35 156 57 184 20 25 38 32 38 14z m-1289 -78
c25 -48 40 -66 53 -64 35 6 106 42 106 53 0 11 -28 9 -62 -6 -15 -6 -18 -2
-18 28 0 19 6 39 13 45 7 6 43 10 80 9 58 -2 67 -4 67 -21 0 -10 -14 -34 -30
-53 -17 -19 -33 -48 -37 -64 -3 -16 -10 -32 -17 -37 -19 -14 -98 -42 -106 -37
-5 3 -23 -9 -41 -26 -21 -19 -39 -29 -51 -25 -11 2 -22 -2 -25 -10 -3 -7 -21
-23 -40 -35 -29 -18 -39 -20 -54 -11 -26 17 -32 15 -26 -8 4 -15 -2 -24 -23
-35 -45 -23 -58 -19 -71 24 -8 29 -9 51 -1 80 6 24 6 43 1 47 -5 3 -9 17 -9
32 0 25 2 24 55 -28 l55 -54 37 22 c25 14 37 27 35 39 -2 10 -6 30 -9 44 -8
41 13 43 36 4 11 -19 24 -35 28 -35 4 0 20 10 35 23 l28 22 -31 49 c-32 51
-42 82 -33 98 8 13 14 6 55 -70z m1409 42 c0 -19 -41 -29 -51 -13 -13 20 -11
27 8 38 20 11 43 -3 43 -25z m-274 -38 c9 -48 -11 -100 -52 -136 -41 -36 -60
-37 -91 -8 -31 29 -29 38 10 32 22 -3 43 2 66 16 30 19 32 24 26 56 -3 19 -3
44 0 54 10 32 33 23 41 -14z m-1451 -81 c0 -13 -8 -21 -24 -23 -13 -2 -26 -12
-28 -23 -8 -28 -47 -21 -51 9 -3 18 1 22 21 22 17 0 26 7 30 21 7 28 52 23 52
-6z m1675 -28 c0 -51 -28 -100 -69 -122 -43 -22 -67 -19 -90 11 -28 35 -26 46
3 33 29 -13 89 -4 105 15 7 8 11 30 9 49 -2 36 17 71 33 61 5 -3 9 -24 9 -47z
m164 -45 c-3 -61 -105 -172 -159 -172 -12 0 -34 13 -49 29 l-29 30 55 -6 c35
-3 63 -1 78 7 l24 13 -22 8 c-31 12 -36 33 -16 65 18 27 90 67 109 60 6 -2 9
-17 9 -34z m-1490 -78 c26 -10 20 -44 -8 -44 -13 0 -30 -10 -38 -22 -19 -28
-51 -18 -46 14 2 17 9 22 26 20 17 -1 25 4 29 18 6 21 12 24 37 14z m741 -139
c237 -43 456 -161 632 -343 266 -275 381 -665 308 -1047 -13 -70 -52 -205 -59
-205 -1 0 -34 25 -72 56 -123 98 -309 202 -458 254 -363 128 -745 132 -1096
13 -187 -63 -403 -180 -538 -290 -24 -19 -45 -34 -46 -32 -2 2 -14 35 -25 74
-112 363 -43 768 180 1065 275 364 720 537 1174 455z m95 -1360 c237 -39 462
-122 666 -246 69 -41 85 -55 81 -71 -12 -44 -95 -173 -161 -250 -182 -211
-413 -346 -679 -397 -128 -25 -204 -28 -120 -6 90 25 146 57 214 124 70 71 99
121 124 216 20 79 19 136 -5 224 -94 338 -512 449 -760 201 -68 -68 -105 -139
-126 -243 -14 -70 -14 -84 0 -154 21 -104 59 -177 128 -246 58 -58 146 -107
226 -126 l37 -9 -32 -1 c-45 -1 -216 33 -293 59 -193 65 -387 197 -520 353
-65 76 -170 238 -170 262 0 20 200 131 348 191 345 142 674 179 1042 119z
m-261 -259 c9 4 27 9 41 11 l25 4 -24 -13 c-32 -17 -41 -43 -12 -33 24 7 61
-2 61 -16 0 -6 -7 -6 -19 1 -26 13 -31 13 -31 -3 0 -8 9 -22 20 -32 11 -10 20
-25 20 -33 0 -11 -8 -8 -29 12 -35 34 -54 17 -21 -19 12 -13 20 -30 18 -37 -3
-9 -9 -5 -17 10 -6 12 -19 22 -27 22 -12 0 -14 -7 -9 -32 7 -32 7 -33 -12 -15
-11 9 -23 17 -26 17 -4 0 -7 -45 -7 -100 0 -82 3 -101 17 -108 14 -9 14 -11
-5 -21 -17 -9 -27 -9 -44 1 -20 10 -21 13 -5 16 15 3 17 16 17 103 0 90 -8
117 -25 89 -13 -21 -24 -9 -18 21 6 29 5 31 -15 20 -11 -6 -22 -16 -25 -23 -2
-7 -8 -10 -12 -5 -5 4 1 21 13 37 26 34 27 40 8 40 -8 0 -24 -12 -35 -26 -16
-20 -21 -23 -21 -10 0 9 11 28 25 42 33 33 32 38 -7 30 -31 -5 -32 -5 -13 9
13 10 30 13 50 10 l30 -6 -28 25 c-29 27 -21 34 15 15 18 -9 24 -8 35 7 13 17
14 17 28 -2 14 -18 15 -18 22 6 l6 24 10 -22 c7 -16 16 -21 26 -16z m-184
-360 c28 -13 66 -40 84 -60 19 -20 39 -36 44 -36 6 0 31 20 57 44 47 44 122
76 179 76 36 0 15 -15 -43 -30 -54 -15 -166 -92 -166 -114 0 -8 10 -22 23 -31
20 -14 22 -14 25 0 2 8 7 15 12 15 4 0 6 -9 3 -20 -6 -24 21 -38 42 -20 16 14
35 5 35 -15 0 -23 -47 -29 -76 -10 -20 13 -28 14 -40 4 -8 -6 -17 -9 -21 -5
-3 3 -1 6 5 6 20 0 13 24 -13 43 -23 17 -26 17 -50 1 -28 -18 -30 -25 -13 -42
8 -8 9 -12 1 -12 -6 0 -13 6 -16 13 -3 9 -13 8 -41 -6 -37 -17 -76 -11 -76 14
0 16 27 21 48 10 15 -8 23 -7 32 4 7 8 17 15 23 15 13 0 47 30 47 41 0 19
-118 95 -179 116 l-66 22 45 1 c27 0 65 -10 95 -24z m-722 -306 c3 -13 14 -20
30 -20 18 0 26 -6 29 -25 6 -30 2 -35 -28 -35 -14 0 -25 8 -29 20 -4 13 -15
20 -30 20 -24 0 -42 30 -30 50 11 18 52 11 58 -10z m1784 -52 c48 -76 82 -144
83 -165 0 -30 -22 -7 -79 78 -45 67 -61 99 -61 125 0 19 2 34 5 34 3 0 26 -33
52 -72z m-129 -5 c18 -5 22 -12 22 -47 0 -54 38 -111 78 -119 21 -4 31 -14 36
-31 3 -13 9 -31 12 -40 5 -12 0 -16 -21 -16 -15 0 -44 -13 -64 -29 -52 -40
-80 -54 -103 -48 -14 4 -22 0 -25 -14 -3 -12 -33 -32 -79 -54 -40 -19 -76 -35
-78 -35 -3 0 -32 46 -65 102 -41 69 -61 113 -61 135 0 18 3 33 8 33 4 0 30
-38 57 -85 28 -46 54 -85 58 -85 5 0 33 12 63 26 48 23 55 29 49 48 -4 11 -9
36 -12 54 -7 43 12 42 38 -3 12 -19 28 -35 36 -35 21 0 83 50 83 66 0 18 -70
124 -81 124 -5 0 -9 16 -9 36 0 31 3 35 18 29 9 -4 27 -10 40 -12z m-1578 -40
c0 -3 -16 -35 -35 -70 -19 -35 -35 -69 -35 -76 0 -7 11 -24 24 -39 l24 -26 48
24 c52 26 74 30 91 13 15 -15 -19 -97 -50 -122 -50 -40 -56 -40 -74 -2 -18 39
-24 41 -54 23 -18 -12 -23 -9 -50 22 -22 26 -28 42 -24 63 4 25 2 27 -21 21
-19 -5 -32 0 -55 22 -16 15 -29 31 -29 36 0 20 84 68 119 68 23 0 50 9 71 25
36 25 50 30 50 18z m240 -227 c-11 -48 -20 -89 -20 -91 0 -9 75 -42 108 -48
36 -7 42 5 12 26 -20 14 -20 14 1 41 17 22 28 27 58 24 46 -4 68 -41 49 -82
-15 -33 -5 -43 47 -48 l40 -3 0 80 c1 75 9 115 24 115 3 0 17 -16 30 -35 l23
-34 -21 -27 c-15 -19 -21 -41 -21 -76 0 -27 -7 -65 -15 -84 -12 -30 -19 -35
-37 -30 -13 3 -49 11 -80 18 -35 7 -58 17 -58 25 0 16 -12 17 -27 2 -11 -11
-158 32 -187 55 -21 17 34 233 66 258 13 9 24 13 26 9 1 -4 -7 -47 -18 -95z
m659 30 c9 -11 10 -20 1 -35 -12 -24 -19 -25 -42 -7 -21 16 -23 27 -6 44 16
16 33 15 47 -2z m-220 -288 c-21 -51 -29 -29 -29 80 0 86 3 112 18 132 17 25
17 23 20 -80 2 -63 -2 -115 -9 -132z m275 203 c3 -4 -1 -16 -8 -27 -12 -15
-18 -16 -39 -7 -20 10 -28 9 -37 -2 -9 -11 -17 -11 -36 -3 -28 13 -31 30 -8
49 13 10 19 10 36 0 17 -11 23 -10 36 3 15 15 43 9 56 -13z m246 -13 c52 -10
60 -15 60 -34 0 -15 -10 -28 -27 -36 -15 -7 -37 -29 -49 -48 -40 -64 -57 -76
-123 -89 -55 -11 -65 -10 -81 4 -14 13 -18 13 -23 2 -8 -22 -143 -32 -172 -13
-27 18 -38 68 -29 125 8 47 24 55 24 12 0 -43 26 -64 69 -57 20 3 53 6 74 6
35 0 37 2 37 33 0 32 15 57 33 57 6 0 7 -18 3 -40 -8 -52 3 -57 90 -33 82 22
102 49 30 41 l-46 -6 0 34 c0 34 33 69 57 60 7 -3 39 -11 73 -18z m312 -100
c24 -19 7 -58 -22 -51 -26 7 -33 18 -25 43 7 23 24 26 47 8z"/>
<path d="M2387 3573 c-16 -15 -6 -33 18 -33 27 0 32 9 13 28 -14 14 -22 15
-31 5z"/>
<path d="M1200 3315 c0 -18 4 -23 15 -19 8 4 15 12 15 19 0 7 -7 15 -15 19
-11 4 -15 -1 -15 -19z"/>
<path d="M2905 3360 c-4 -6 -3 -16 3 -22 6 -6 12 -6 17 2 4 6 3 16 -3 22 -6 6
-12 6 -17 -2z"/>
<path d="M1765 2920 c-23 -5 -89 -24 -148 -44 -59 -20 -113 -36 -121 -36 -20
0 -266 -375 -266 -406 0 -14 5 -34 10 -45 10 -18 25 -19 336 -19 l325 0 33
-35 c50 -52 113 -47 145 12 l12 23 336 2 337 3 9 36 c8 35 3 44 -120 232 -70
108 -134 197 -141 197 -7 0 -59 15 -115 34 -126 42 -217 59 -271 51 -42 -7
-116 -50 -116 -67 0 -6 -16 4 -35 20 -54 48 -117 60 -210 42z m185 -59 l35
-28 3 -188 2 -187 -57 51 c-34 30 -74 56 -98 62 -49 14 -156 5 -216 -17 -88
-31 -349 -97 -349 -88 0 11 233 355 237 351 2 -3 17 -1 31 3 224 72 259 80
327 74 35 -4 61 -14 85 -33z m344 13 c28 -9 77 -25 109 -35 32 -11 67 -21 78
-22 12 -1 32 -15 44 -32 41 -54 215 -319 212 -322 -5 -5 -278 66 -342 89 -42
15 -85 22 -145 22 -98 1 -128 -11 -191 -76 l-39 -40 0 190 0 190 33 25 c18 14
44 27 58 30 36 8 125 -1 183 -19z m-694 -372 c-10 -5 -15 -21 -15 -50 0 -40 2
-42 30 -44 52 -2 -145 -16 -252 -17 -57 -1 -103 3 -103 8 0 5 -3 16 -6 24 -4
11 7 16 48 21 29 4 103 20 163 36 104 27 171 38 135 22z m939 -22 c63 -16 137
-33 163 -36 43 -6 49 -10 46 -28 -2 -17 -11 -22 -48 -24 -67 -5 -341 11 -300
17 19 4 30 9 24 13 -6 4 -9 21 -6 39 3 20 0 34 -9 40 -25 16 11 10 130 -21z
m-505 -69 c33 -34 31 -61 -6 -79 -30 -14 -72 -3 -82 23 -5 15 40 85 55 85 3 0
18 -13 33 -29z"/>
<path d="M1107 691 c-17 -6 -17 -8 -3 -20 17 -14 36 -7 36 15 0 15 -6 16 -33
5z"/>
<path d="M1280 554 c0 -8 5 -12 10 -9 6 4 8 11 5 16 -9 14 -15 11 -15 -7z"/>
</g>
</svg>
