<svg xmlns="http://www.w3.org/2000/svg" fill="none" viewBox="0 0 40 40"><rect width="38.472" height="38.472" x=".734" y=".797" fill="currentColor" rx="19.236"/><path fill="#091F4A" d="M21.438 14.732c0 .166.061.332.192.463l4.844 4.844-4.844 4.844a.66.66 0 0 0 0 .927.66.66 0 0 0 .927 0l5.308-5.308a.66.66 0 0 0 0-.926l-5.308-5.308a.66.66 0 0 0-.927 0 .634.634 0 0 0-.192.463Z"/><path fill="#091F4A" d="M11.879 20.04a.66.66 0 0 0 .656.655H27.25a.66.66 0 0 0 .656-.655.66.66 0 0 0-.655-.656H12.534a.66.66 0 0 0-.656.655Z"/></svg>
