<svg width="18" height="18" viewBox="0 0 18 18" fill="none" xmlns="http://www.w3.org/2000/svg">
<path d="M2.25 2.25V1.75H1.75V2.25H2.25ZM9.39645 10.1036C9.59171 10.2988 9.90829 10.2988 10.1036 10.1036C10.2988 9.90829 10.2988 9.59171 10.1036 9.39645L9.39645 10.1036ZM2.75 8.25V2.25H1.75V8.25H2.75ZM2.25 2.75H8.25V1.75H2.25V2.75ZM1.89645 2.60355L9.39645 10.1036L10.1036 9.39645L2.60355 1.89645L1.89645 2.60355Z" fill="CurrentColor"/>
<path d="M3 11.25V11.25C3 11.947 3 12.2955 3.05764 12.5853C3.29436 13.7753 4.22466 14.7056 5.41473 14.9424C5.70453 15 6.05302 15 6.75 15H9C11.8284 15 13.2426 15 14.1213 14.1213C15 13.2426 15 11.8284 15 9V6.75C15 6.05302 15 5.70453 14.9424 5.41473C14.7056 4.22466 13.7753 3.29436 12.5853 3.05764C12.2955 3 11.947 3 11.25 3V3" stroke="CurrentColor" stroke-linecap="round"/>
</svg>
