<svg xmlns="http://www.w3.org/2000/svg" fill="none" viewBox="0 0 24 25"><path fill="currentColor" d="M22.078 6.255a3.276 3.276 0 0 0-3.271-3.27H4.27A3.275 3.275 0 0 0 1 6.254v14.478a3.254 3.254 0 0 0 3.251 3.251h14.575a3.254 3.254 0 0 0 3.252-3.25V6.254ZM4.27 4.68h14.536a1.577 1.577 0 0 1 1.575 1.575v7.917a3.246 3.246 0 0 0-1.556-.397h-.819a3.239 3.239 0 0 0-3.016 2.038 1.549 1.549 0 0 1-1.454.969H9.53a1.548 1.548 0 0 1-1.453-.97 3.24 3.24 0 0 0-3.007-2.027h-.819a3.247 3.247 0 0 0-1.555.387V6.255A1.577 1.577 0 0 1 4.27 4.68Zm16.11 16.053a1.558 1.558 0 0 1-1.555 1.555H4.251a1.558 1.558 0 0 1-1.555-1.555v-3.697a1.558 1.558 0 0 1 1.555-1.555h.82a1.546 1.546 0 0 1 1.44.969 3.239 3.239 0 0 0 3.02 2.037h4.016a3.239 3.239 0 0 0 3.019-2.037 1.545 1.545 0 0 1 1.454-.97h.818a1.558 1.558 0 0 1 1.556 1.556l-.012 3.697Z"/><path fill="currentColor" fill-opacity=".6" d="M7.98 8.602h7.114a.848.848 0 1 0 0-1.696H7.98a.848.848 0 0 0 0 1.696Z"/></svg>
