<svg xmlns="http://www.w3.org/2000/svg" fill="none" viewBox="0 0 44 45"><rect width="44" height="44" y=".5" fill="#FF472E" fill-opacity=".05" rx="22"/><path fill="#DE346D" fill-rule="evenodd" d="M22 11.75c5.933 0 10.75 4.817 10.75 10.75S27.933 33.25 22 33.25 11.25 28.433 11.25 22.5 16.067 11.75 22 11.75Zm0 1.5c-5.105 0-9.25 4.145-9.25 9.25s4.145 9.25 9.25 9.25 9.25-4.145 9.25-9.25-4.145-9.25-9.25-9.25Z" clip-rule="evenodd"/><path fill="#DE346D" fill-rule="evenodd" d="M19.03 26.53a.749.749 0 1 1-1.06-1.06l7-7a.749.749 0 1 1 1.06 1.06l-7 7Z" clip-rule="evenodd"/><path fill="#DE346D" fill-rule="evenodd" d="M26.03 25.47a.749.749 0 1 1-1.06 1.06l-7-7a.749.749 0 1 1 1.06-1.06l7 7Z" clip-rule="evenodd"/></svg>
