<svg xmlns="http://www.w3.org/2000/svg" fill="none" viewBox="0 0 38 38">
							<mask id="rights-a" width="28" height="30" x="7.629" y="1.867" fill="#000" maskUnits="userSpaceOnUse">
								<path fill="#fff" d="M7.629 1.867h28v30h-28z"/>
								<path d="M30.372 30.61A16.252 16.252 0 0 0 8.595 6.536l.488.596a15.48 15.48 0 0 1 20.744 22.933l.544.545Z"/>
							</mask>
							<path fill="#fff" d="M30.372 30.61A16.252 16.252 0 0 0 8.595 6.536l.488.596a15.48 15.48 0 0 1 20.744 22.933l.544.545Z"/>
							<path stroke="#fff" stroke-width=".551" d="M30.372 30.61A16.252 16.252 0 0 0 8.595 6.536l.488.596a15.48 15.48 0 0 1 20.744 22.933l.544.545Z" mask="url(#rights-a)"/>
							<mask id="rights-b" width="33.109" height="34.701" x="4.725" y="-1.074" fill="#000" maskUnits="userSpaceOnUse">
								<path fill="#fff" d="M4.725-1.074h33.109v34.701H4.725z"/>
								<path d="M32.435 28.145A16.251 16.251 0 0 0 6.546 8.56l.59.495a15.48 15.48 0 0 1 24.662 18.656l.637.434Z"/>
							</mask>
							<path fill="#fff" d="M32.435 28.145A16.251 16.251 0 0 0 6.546 8.56l.59.495a15.48 15.48 0 0 1 24.662 18.656l.637.434Z"/>
							<path stroke="#fff" stroke-width=".551" d="M32.435 28.145A16.251 16.251 0 0 0 6.546 8.56l.59.495a15.48 15.48 0 0 1 24.662 18.656l.637.434Z" mask="url(#rights-b)"/>
							<mask id="rights-c" width="29" height="25" x="3.863" y="4.578" fill="#000" maskUnits="userSpaceOnUse">
								<path fill="#fff" d="M3.863 4.578h29v25h-29z"/>
								<path d="M28.384 29.099a13.779 13.779 0 1 0-23.513-9.272l.653-.023a13.125 13.125 0 1 1 22.398 8.833l.462.462Z"/>
							</mask>
							<path fill="#fff" d="M28.384 29.099a13.779 13.779 0 1 0-23.513-9.272l.653-.023a13.125 13.125 0 1 1 22.398 8.833l.462.462Z"/>
							<path stroke="#fff" stroke-width=".551" d="M28.384 29.099a13.779 13.779 0 1 0-23.513-9.272l.653-.023a13.125 13.125 0 1 1 22.398 8.833l.462.462Z" mask="url(#rights-c)"/>
							<mask id="rights-d" width="24" height="21" x="6.695" y="8.109" fill="#000" maskUnits="userSpaceOnUse">
								<path fill="#fff" d="M6.695 8.109h24v21h-24z"/>
								<path d="M26.391 27.805a10.951 10.951 0 1 0-18.69-7.37l.679-.023a10.274 10.274 0 1 1 17.532 6.914l.48.48Z"/>
							</mask>
							<path fill="#fff" d="M26.391 27.805a10.951 10.951 0 1 0-18.69-7.37l.679-.023a10.274 10.274 0 1 1 17.532 6.914l.48.48Z"/>
							<path stroke="#fff" stroke-width=".551" d="M26.391 27.805a10.951 10.951 0 1 0-18.69-7.37l.679-.023a10.274 10.274 0 1 1 17.532 6.914l.48.48Z" mask="url(#rights-d)"/>
							<mask id="rights-e" width="17" height="15" x="9.52" y="11.641" fill="#000" maskUnits="userSpaceOnUse">
								<path fill="#fff" d="M9.52 11.641h17v15h-17z"/>
								<path d="M23.788 25.909a7.772 7.772 0 1 0-13.264-5.23l.51-.018a7.261 7.261 0 1 1 12.392 4.886l.362.362Z"/>
							</mask>
							<path fill="#fff" d="M23.788 25.909a7.772 7.772 0 1 0-13.264-5.23l.51-.018a7.261 7.261 0 1 1 12.392 4.886l.362.362Z"/>
							<path stroke="#fff" stroke-width=".551" d="M23.788 25.909a7.772 7.772 0 1 0-13.264-5.23l.51-.018a7.261 7.261 0 1 1 12.392 4.886l.362.362Z" mask="url(#rights-e)"/>
							<mask id="rights-f" width="11" height="10" x="12.699" y="15.18" fill="#000" maskUnits="userSpaceOnUse">
								<path fill="#fff" d="M12.699 15.18h11v10h-11z"/>
								<path d="M21.54 24.02a4.593 4.593 0 1 0-7.838-3.09l.528-.019a4.064 4.064 0 1 1 6.936 2.735l.373.374Z"/>
							</mask>
							<path fill="#fff" d="M21.54 24.02a4.593 4.593 0 1 0-7.838-3.09l.528-.019a4.064 4.064 0 1 1 6.936 2.735l.373.374Z"/>
	<path stroke="#fff" stroke-width=".551" d="M21.54 24.02a4.593 4.593 0 1 0-7.838-3.09l.528-.019a4.064 4.064 0 1 1 6.936 2.735l.373.374Z" mask="url(#rights-f)"/>
	<path fill="#F8BB35" d="M15.09 26.041a30.068 30.068 0 0 0-2.133 3.577c-.422.83-.268.955.462.377l2.574-2.062c.337-.27.569-.2.697.213l.213.668c.114.38.204.375.27-.014l.363-2.119a.645.645 0 0 1 .54-.524.626.626 0 0 1 .263.02c3.044.886 5.715 2.367 8.014 4.443.07.067.14.062.206-.014l.12-.15c.029-.037.027-.07-.007-.099a27.711 27.711 0 0 0-8.468-5.34c-.332-.132-.431-.362-.298-.69a4.44 4.44 0 0 0 .213-2.78c-.09-.374-.232-.395-.427-.063l-1.407 2.431a.57.57 0 0 1-.626.264c-4.043-1.048-8.177-1.193-12.4-.434a.421.421 0 0 0-.348.327.737.737 0 0 0 .035.483c.175.408.484.581.924.52 2.468-.328 8.789-1.053 11.114.447.213.138.248.31.106.52Z"/>
</svg>
