<svg xmlns="http://www.w3.org/2000/svg" fill="none" viewBox="0 0 20 19"><path stroke="currentColor" stroke-linecap="round" stroke-linejoin="round" stroke-miterlimit="10" stroke-width="1.762" d="M14.018 7.939h1.567c1.566 0 2.35-.784 2.35-2.35V4.022c0-1.567-.784-2.35-2.35-2.35h-1.567c-1.567 0-2.35.783-2.35 2.35v1.567c0 1.566.783 2.35 2.35 2.35ZM4.616 17.337h1.566c1.567 0 2.35-.783 2.35-2.35V13.42c0-1.566-.783-2.35-2.35-2.35H4.616c-1.567 0-2.35.784-2.35 2.35v1.567c0 1.567.783 2.35 2.35 2.35ZM5.399 7.939a3.133 3.133 0 1 0 0-6.267 3.133 3.133 0 0 0 0 6.267Z"/><path stroke="currentColor" stroke-linecap="round" stroke-linejoin="round" stroke-miterlimit="10" stroke-width="1.762" d="M14.801 17.337a3.133 3.133 0 1 0 0-6.267 3.133 3.133 0 0 0 0 6.267Z" opacity=".6"/></svg>
