<svg xmlns="http://www.w3.org/2000/svg" fill="none" viewBox="0 0 26 27"><path stroke="currentColor" stroke-linecap="round" stroke-miterlimit="10" stroke-width="1.5" d="M13.021 3.656a6.505 6.505 0 0 0-6.5 6.5v3.131c0 .66-.282 1.668-.617 2.232l-1.246 2.069c-.77 1.278-.239 2.697 1.17 3.174a22.665 22.665 0 0 0 14.376 0c1.31-.433 1.885-1.982 1.17-3.174l-1.246-2.07c-.325-.563-.607-1.57-.607-2.23v-3.132c0-3.575-2.925-6.5-6.5-6.5Z"/><path stroke="currentColor" stroke-linecap="round" stroke-linejoin="round" stroke-miterlimit="10" stroke-width="1.5" d="M15.024 3.967a7.317 7.317 0 0 0-4.008 0 2.15 2.15 0 0 1 2.004-1.365c.91 0 1.69.563 2.004 1.365Z"/><path stroke="currentColor" stroke-miterlimit="10" stroke-width="1.5" d="M16.273 21.148a3.26 3.26 0 0 1-3.25 3.25 3.261 3.261 0 0 1-2.296-.953 3.261 3.261 0 0 1-.954-2.297" opacity=".4"/></svg>
