<svg xmlns="http://www.w3.org/2000/svg" fill="none" viewBox="0 0 28 28"><rect width="26.782" height="26.782" x=".969" y=".25" fill="#F5F3FF" rx="13.391"/><rect width="26.782" height="26.782" x=".969" y=".25" stroke="#3937C7" stroke-width=".5" rx="13.391"/><path fill="#664EFA" d="M11.668 9.659a.469.469 0 0 1-.465-.465V7.332c0-.254.211-.465.465-.465.255 0 .466.211.466.465v1.862c0 .254-.211.465-.466.465ZM16.633 9.659a.469.469 0 0 1-.465-.465V7.332c0-.254.21-.465.465-.465s.466.211.466.465v1.862a.469.469 0 0 1-.466.465ZM11.98 15.09a.618.618 0 0 1-.236-.05.639.639 0 0 1-.205-.13.652.652 0 0 1-.18-.441c0-.161.069-.323.18-.44.062-.056.13-.1.205-.13a.62.62 0 0 1 .472 0 .715.715 0 0 1 .204.13c.025.03.056.061.075.092a.472.472 0 0 1 .056.112.397.397 0 0 1 .037.112.932.932 0 0 1 .012.124.652.652 0 0 1-.18.44.713.713 0 0 1-.204.13.618.618 0 0 1-.236.05ZM14.152 15.092a.618.618 0 0 1-.236-.05.641.641 0 0 1-.205-.13.652.652 0 0 1-.18-.44c0-.037.006-.08.013-.124a.394.394 0 0 1 .037-.112.468.468 0 0 1 .056-.111l.074-.094a.65.65 0 0 1 .881 0l.075.094a.468.468 0 0 1 .055.111.394.394 0 0 1 .038.112.933.933 0 0 1 .012.124.652.652 0 0 1-.18.44.641.641 0 0 1-.44.18ZM11.98 17.261a.618.618 0 0 1-.236-.05.717.717 0 0 1-.205-.13.652.652 0 0 1-.18-.44.76.76 0 0 1 .013-.118.374.374 0 0 1 .037-.118.47.47 0 0 1 .056-.112c.018-.03.05-.062.074-.093.062-.056.13-.099.205-.13a.62.62 0 0 1 .472 0 .713.713 0 0 1 .204.13c.025.031.056.062.075.093a.47.47 0 0 1 .056.112.377.377 0 0 1 .037.118.76.76 0 0 1 .012.118.652.652 0 0 1-.18.44.715.715 0 0 1-.204.13.618.618 0 0 1-.236.05ZM19.426 12.196H8.879a.469.469 0 0 1-.465-.465c0-.254.211-.465.465-.465h10.547c.254 0 .465.21.465.465 0 .254-.21.465-.465.465ZM16.52 20.23a.872.872 0 0 1-.62-.249.882.882 0 0 1-.237-.763l.118-.837c.031-.218.162-.478.317-.633l2.196-2.196c.297-.298.59-.453.905-.484.391-.037.77.124 1.13.484.378.378.887 1.147 0 2.035l-2.197 2.196a1.229 1.229 0 0 1-.632.316l-.838.118c-.05.006-.093.012-.142.012Zm2.785-4.238h-.019c-.087.006-.204.087-.335.217l-2.196 2.196a.236.236 0 0 0-.05.106l-.111.775.775-.111a.345.345 0 0 0 .106-.056l2.196-2.196c.273-.273.31-.41 0-.72-.1-.093-.242-.21-.366-.21Z"/><path fill="#664EFA" d="M19.685 18.039a.4.4 0 0 1-.124-.019 2.467 2.467 0 0 1-1.7-1.7.471.471 0 0 1 .322-.576.471.471 0 0 1 .577.322 1.53 1.53 0 0 0 1.055 1.055c.248.068.39.329.323.577a.476.476 0 0 1-.453.341Z"/><path fill="#664EFA" d="M14.15 20.205H11.67c-2.265 0-3.567-1.303-3.567-3.568v-5.273c0-2.264 1.302-3.567 3.567-3.567h4.963c2.264 0 3.567 1.303 3.567 3.567v2.171c0 .255-.21.466-.465.466a.469.469 0 0 1-.465-.465v-2.172c0-1.774-.863-2.637-2.637-2.637h-4.963c-1.775 0-2.637.863-2.637 2.637v5.273c0 1.775.862 2.637 2.637 2.637h2.481c.255 0 .466.211.466.465 0 .255-.211.466-.466.466Z"/></svg>
