<svg xmlns="http://www.w3.org/2000/svg" fill="none" viewBox="0 0 28 28"><rect width="27.227" height="27.227" x=".523" y=".25" fill="#E9EEE0" rx="13.614"/><rect width="27.227" height="27.227" x=".523" y=".25" stroke="#688137" stroke-width=".5" rx="13.614"/><path fill="#688137" d="M18.713 13.088H9.57a2.147 2.147 0 0 1-2.144-2.144V9.3c0-1.181.962-2.144 2.144-2.144h9.143c1.181 0 2.144.963 2.144 2.144v1.644a2.147 2.147 0 0 1-2.144 2.143Zm-9.15-5c-.668 0-1.206.543-1.206 1.206v1.643c0 .67.544 1.207 1.206 1.207h9.144c.669 0 1.206-.544 1.206-1.207V9.294c0-.669-.544-1.207-1.206-1.207H9.563ZM18.713 20.587H9.57a2.147 2.147 0 0 1-2.144-2.143V16.8c0-1.181.962-2.144 2.144-2.144h9.143c1.181 0 2.144.963 2.144 2.144v1.644a2.147 2.147 0 0 1-2.144 2.143Zm-9.15-5c-.668 0-1.206.544-1.206 1.207v1.643c0 .67.544 1.207 1.206 1.207h9.144c.669 0 1.206-.544 1.206-1.206v-1.644c0-.669-.544-1.207-1.206-1.207H9.563Z"/><path fill="#688137" d="M10.387 11.21a.472.472 0 0 1-.469-.468v-1.25c0-.256.213-.469.469-.469s.468.213.468.47v1.25a.472.472 0 0 1-.468.468ZM12.887 11.21a.472.472 0 0 1-.469-.468v-1.25c0-.256.213-.469.469-.469s.468.213.468.47v1.25a.472.472 0 0 1-.468.468ZM10.387 18.71a.472.472 0 0 1-.469-.468v-1.25c0-.256.213-.469.469-.469s.468.213.468.47v1.25a.472.472 0 0 1-.468.468ZM12.887 18.71a.472.472 0 0 1-.469-.468v-1.25c0-.256.213-.469.469-.469s.468.213.468.47v1.25a.472.472 0 0 1-.468.468ZM17.887 10.586h-2.5a.472.472 0 0 1-.469-.469c0-.256.213-.469.469-.469h2.5c.256 0 .468.213.468.47a.472.472 0 0 1-.468.468ZM17.887 18.086h-2.5a.472.472 0 0 1-.469-.469c0-.256.213-.469.469-.469h2.5c.256 0 .468.213.468.47a.472.472 0 0 1-.468.468Z"/></svg>
