<svg xmlns="http://www.w3.org/2000/svg" fill="none" viewBox="0 0 20 19"><path fill="currentColor" d="M9.877 14.95a3.724 3.724 0 0 1-3.72-3.721 3.724 3.724 0 0 1 3.72-3.721 3.724 3.724 0 0 1 3.72 3.72 3.724 3.724 0 0 1-3.72 3.722Zm0-6.267a2.55 2.55 0 0 0-2.546 2.546 2.55 2.55 0 0 0 2.546 2.546 2.55 2.55 0 0 0 2.546-2.546 2.55 2.55 0 0 0-2.546-2.546Z"/><path fill="currentColor" d="M9.092 12.594a.586.586 0 0 1-.298-1.089l.596-.36a.184.184 0 0 0 .094-.165v-.728c0-.322.266-.588.587-.588.322 0 .588.259.588.58v.728c0 .478-.259.932-.666 1.175l-.595.36a.55.55 0 0 1-.306.087Z"/><path fill="currentColor" d="M13.008 17.92H6.742c-3.62 0-4.293-1.685-4.465-3.322l-.588-6.275c-.086-.822-.11-2.036.705-2.945.705-.783 1.872-1.16 3.564-1.16h7.834c1.7 0 2.867.385 3.564 1.16.815.909.791 2.123.705 2.953l-.587 6.26c-.173 1.644-.846 3.328-4.466 3.328ZM5.958 5.385c-1.323 0-2.232.258-2.694.775-.384.423-.51 1.074-.408 2.045l.588 6.274c.133 1.238.47 2.264 3.298 2.264h6.266c2.82 0 3.165-1.026 3.298-2.271l.588-6.26c.102-.978-.024-1.629-.407-2.052-.463-.517-1.371-.775-2.695-.775H5.958Z"/><path fill="currentColor" d="M13.01 5.386a.592.592 0 0 1-.587-.587v-.627c0-1.394 0-1.919-1.92-1.919H9.25c-1.919 0-1.919.525-1.919 1.92v.626a.592.592 0 0 1-.587.587.592.592 0 0 1-.588-.587v-.627c0-1.378 0-3.094 3.094-3.094h1.254c3.094 0 3.094 1.716 3.094 3.094V4.8a.592.592 0 0 1-.588.587ZM13.02 11.377a.593.593 0 0 1-.573-.446.587.587 0 0 1 .423-.713 12.163 12.163 0 0 0 4.215-1.974.59.59 0 0 1 .822.133.59.59 0 0 1-.133.823 13.44 13.44 0 0 1-4.622 2.162.683.683 0 0 1-.133.015ZM6.745 11.397c-.047 0-.094-.008-.14-.016a13.459 13.459 0 0 1-4.411-1.974.59.59 0 0 1-.157-.815.59.59 0 0 1 .815-.156 12.253 12.253 0 0 0 4.026 1.801c.314.079.51.392.431.713a.571.571 0 0 1-.564.447Z"/></svg>
