<svg xmlns="http://www.w3.org/2000/svg" fill="none" viewBox="0 0 28 28"><rect width="26.928" height="26.928" x=".82" y=".25" fill="#FFFAF2" rx="13.464"/><rect width="26.928" height="26.928" x=".82" y=".25" stroke="#FF7455" stroke-width=".5" rx="13.464"/><path fill="#292D32" d="M11.375 12.063a.425.425 0 0 1-.422-.422v-1.125c0-.231.191-.422.422-.422.23 0 .422.191.422.422v1.125c0 .23-.191.421-.422.421Z"/><path fill="#292D32" d="M14.75 19.797h-1.688c-3.054 0-4.359-1.305-4.359-4.36v-3.374c0-3.055 1.305-4.36 4.36-4.36h3.374c3.055 0 4.36 1.305 4.36 4.36v1.687c0 .23-.191.422-.422.422a.425.425 0 0 1-.422-.422v-1.688c0-2.593-.922-3.515-3.515-3.515h-3.375c-2.594 0-3.516.922-3.516 3.515v3.376c0 2.593.922 3.515 3.515 3.515h1.688c.23 0 .422.191.422.422 0 .23-.191.422-.422.422Z"/><path fill="#292D32" d="M13.625 12.063a.425.425 0 0 1-.422-.422v-1.125c0-.231.191-.422.422-.422.23 0 .422.191.422.422v1.125c0 .23-.191.421-.422.421ZM11.375 17.547a.425.425 0 0 1-.422-.422V16c0-.23.191-.422.422-.422.23 0 .422.191.422.422v1.125c0 .23-.191.422-.422.422ZM13.625 17.547a.425.425 0 0 1-.422-.422V16c0-.23.191-.422.422-.422.23 0 .422.191.422.422v1.125c0 .23-.191.422-.422.422ZM18.125 11.5h-2.25a.425.425 0 0 1-.422-.422c0-.23.191-.422.422-.422h2.25c.23 0 .422.191.422.422 0 .23-.191.422-.422.422ZM20.375 14.172H9.125a.425.425 0 0 1-.422-.422c0-.23.191-.422.422-.422h11.25c.23 0 .422.191.422.422 0 .23-.191.422-.422.422Z"/><path stroke="#292D32" stroke-linecap="round" stroke-linejoin="round" stroke-width=".5" d="M20.128 18.436a1.822 1.822 0 0 1-1.58.91c-1.007 0-1.626-1.012-1.626-1.012m.04-1.72a1.818 1.818 0 0 1 1.585-.918c1.221 0 1.829 1.013 1.829 1.013m0-1.13v1.124H19.25m-1.204 1.626h-1.125v1.046"/></svg>
