<svg xmlns="http://www.w3.org/2000/svg" fill="none" viewBox="0 0 28 28"><rect width="27.227" height="27.227" x=".523" y=".25" fill="#FAFFFE" rx="13.614"/><rect width="27.227" height="27.227" x=".523" y=".25" stroke="#37A2C8" stroke-width=".5" rx="13.614"/><path fill="#37A2C8" d="M14.352 6.508a7.5 7.5 0 0 1 .233 14.996l-.233.004a7.5 7.5 0 1 1 0-15Zm0 11.25a3.734 3.734 0 0 1-2.3-.787l-1.998 1.997.16.133a6.559 6.559 0 0 0 .195.154l-.103-.08c.064.05.129.1.194.147l-.09-.067c.16.12.326.234.497.34l.038.023-.038-.023c.074.046.15.09.225.133l-.187-.11c.075.046.151.09.229.133l-.042-.023.173.094-.131-.071c.078.043.157.085.237.125l.23.11a6.558 6.558 0 0 0 .294.125l-.095-.038c.083.034.167.067.252.098l-.157-.06c.079.031.158.06.238.09l-.08-.03a6.493 6.493 0 0 0 .661.204l-.137-.037c.087.024.176.047.265.067l-.128-.03c.078.019.156.037.235.054l-.107-.024c.1.023.2.043.3.061l-.193-.037c.078.016.157.031.236.045l-.043-.008c.098.018.197.033.296.047l-.253-.039c.115.02.232.037.35.05l-.097-.011c.081.01.163.02.245.028l-.149-.016c.088.01.176.019.265.026l-.116-.01c.085.008.17.014.256.019l-.14-.01c.09.008.18.013.271.016l-.13-.006c.123.007.247.01.372.01l.241-.004a6.214 6.214 0 0 0 .271-.015l-.14.009c.085-.005.171-.011.256-.02l-.116.01c.089-.006.177-.015.265-.025l-.149.016a6.54 6.54 0 0 0 .245-.028l-.096.012c.117-.014.234-.031.35-.051l-.254.039c.1-.014.199-.029.296-.047l-.043.008c.08-.014.158-.029.236-.045l-.193.037c.101-.018.201-.038.3-.06l-.107.023a6.76 6.76 0 0 0 .235-.054l-.128.03c.09-.02.178-.043.266-.067l-.138.037a6.487 6.487 0 0 0 .662-.204l-.08.029c.08-.028.159-.058.237-.089l-.157.06c.085-.031.169-.064.252-.098l-.095.038c.1-.04.198-.081.295-.125l.229-.11a6.674 6.674 0 0 0 .237-.125l-.13.07c.057-.03.115-.061.172-.093l-.042.023a6.58 6.58 0 0 0 .23-.133l-.188.11c.076-.043.15-.087.225-.133l-.038.023a6.593 6.593 0 0 0 .536-.363l-.092.067a6.45 6.45 0 0 0 .195-.146l-.103.079c.066-.05.131-.101.196-.154l-.093.075c.085-.067.17-.137.252-.208L16.65 16.97a3.734 3.734 0 0 1-2.3.788ZM9.392 9.71l-.134.159a6.503 6.503 0 0 0-.153.196l.079-.103c-.05.063-.099.128-.147.194l.068-.091a6.588 6.588 0 0 0-.364.535l.023-.037c-.045.074-.09.149-.132.225l.11-.188c-.046.075-.09.152-.133.229l.023-.041a6.608 6.608 0 0 0-.11.203l.087-.162a6.574 6.574 0 0 0-.126.238l-.11.229a6.568 6.568 0 0 0-.125.294l.039-.095a6.503 6.503 0 0 0-.099.252l.06-.157a6.473 6.473 0 0 0-.089.239l.03-.082a6.523 6.523 0 0 0-.235.79l.03-.127a6.52 6.52 0 0 0-.051.223l.021-.096a6.538 6.538 0 0 0-.12.693l.013-.097c-.011.081-.02.163-.028.245l.016-.148c-.01.087-.02.176-.026.264l.01-.116c-.008.085-.015.17-.02.257l.01-.14a6.605 6.605 0 0 0-.015.265l.005-.125c-.006.123-.01.247-.01.372l.005.247a6.76 6.76 0 0 0 .015.265l-.01-.14c.005.086.012.171.02.257l-.01-.117c.007.089.015.177.026.265l-.016-.148c.008.082.017.163.028.245l-.012-.097a6.54 6.54 0 0 0 .12.692l-.024-.107c.016.078.034.155.053.232l-.03-.125c.02.09.043.178.067.266l-.037-.14a6.514 6.514 0 0 0 .199.649l-.024-.066c.029.08.058.16.09.239l-.066-.173c.033.09.067.18.104.267l-.039-.094a6.54 6.54 0 0 0 .36.76l-.086-.161c.035.068.072.136.11.203l-.024-.041c.043.077.088.153.133.229l-.11-.188c.043.076.088.15.133.225l-.023-.038c.052.085.105.168.16.25l.13.185a6.557 6.557 0 0 0 .144.193l-.07-.092c.05.066.1.132.153.196l-.083-.104c.07.09.142.177.217.263l1.997-1.997a3.734 3.734 0 0 1-.787-2.3c0-.867.294-1.665.787-2.3L9.392 9.71Zm9.92 0-1.998 1.998c.494.635.788 1.433.788 2.299 0 .867-.294 1.665-.788 2.3l1.998 1.997.133-.16a7.022 7.022 0 0 0 .154-.195l-.07.092c.049-.064.097-.128.144-.193l.13-.185c.046-.07.091-.14.136-.212l.023-.038-.023.038c.045-.074.09-.149.133-.225l-.11.188c.046-.076.09-.152.133-.23l-.023.042.11-.203-.087.162a6.519 6.519 0 0 0 .36-.761l-.039.094c.037-.088.072-.177.104-.267l-.065.173a6.49 6.49 0 0 0 .089-.239l-.024.066a6.518 6.518 0 0 0 .199-.65l-.037.14c.024-.087.047-.176.067-.265l-.03.125c.02-.076.037-.154.053-.231l-.023.106a6.531 6.531 0 0 0 .12-.692l-.013.097c.011-.082.02-.163.028-.246l-.015.15c.01-.089.018-.177.025-.266l-.01.116c.008-.085.015-.17.02-.256l-.01.14c.007-.09.012-.18.016-.27l-.006.13a6.65 6.65 0 0 0 .01-.372l-.004-.242a7.005 7.005 0 0 0-.016-.27l.01.14a6.599 6.599 0 0 0-.02-.257l.01.116a6.59 6.59 0 0 0-.025-.264l.015.148a6.589 6.589 0 0 0-.028-.245l.012.097a6.55 6.55 0 0 0-.12-.693l.022.097a6.639 6.639 0 0 0-.052-.224l.03.127a6.657 6.657 0 0 0-.233-.79l.029.081a6.533 6.533 0 0 0-.09-.238l.06.158a6.399 6.399 0 0 0-.098-.253l.039.095c-.04-.1-.081-.197-.125-.294l-.11-.23a5.933 5.933 0 0 0-.125-.237l.087.162a6.629 6.629 0 0 0-.11-.203l.023.04a6.486 6.486 0 0 0-.133-.228l.11.188a6.736 6.736 0 0 0-.133-.225l.023.037a6.606 6.606 0 0 0-.364-.536l.068.092a6.585 6.585 0 0 0-.146-.194l.078.103c-.05-.067-.1-.132-.153-.196l.075.093a6.694 6.694 0 0 0-.208-.252Zm-4.96 1.484a2.8 2.8 0 0 0-1.508.438l-.122.082-.13.098a2.73 2.73 0 0 0-.131.113l.05-.046c-.04.035-.079.071-.117.108l.067-.062c-.044.04-.087.081-.129.124l.062-.062c-.042.041-.083.083-.123.127l.061-.065a2.874 2.874 0 0 0-.108.118l.047-.053a2.794 2.794 0 0 0-.112.13l.065-.077a2.816 2.816 0 0 0-.165.21l-.082.122a2.8 2.8 0 0 0-.438 1.508 2.801 2.801 0 0 0 .742 1.903l-.079-.089c.037.044.076.086.115.128l-.036-.04c.04.045.082.088.125.129l-.089-.09c.042.045.086.088.131.13l-.042-.04c.044.042.09.083.137.123l-.095-.084a2.801 2.801 0 0 0 1.903.742 2.801 2.801 0 0 0 1.891-.73l-.05.045c.04-.035.079-.07.117-.108l-.067.063c.045-.04.087-.082.129-.125l-.062.062c.043-.041.084-.084.124-.128l-.062.066a2.81 2.81 0 0 0 .108-.118l-.046.052c.454-.5.731-1.163.731-1.891a2.802 2.802 0 0 0-.742-1.903l.079.088a2.894 2.894 0 0 0-.118-.13l.04.042a2.809 2.809 0 0 0-.13-.132l.09.09a2.774 2.774 0 0 0-.128-.126l.038.036a2.79 2.79 0 0 0-.114-.103l.076.067a2.84 2.84 0 0 0-.144-.124l-.13-.098-.122-.082a2.799 2.799 0 0 0-1.507-.438Zm0-3.75-.248.005a6.79 6.79 0 0 0-.265.015l.14-.01a6.613 6.613 0 0 0-.256.02l.116-.01a6.591 6.591 0 0 0-.265.026l.149-.016a6.583 6.583 0 0 0-.245.028l.096-.012c-.117.014-.233.03-.349.05l.253-.038a6.53 6.53 0 0 0-.296.046l.043-.007a6.54 6.54 0 0 0-.236.045l.193-.038c-.101.018-.201.039-.3.062l.107-.024a6.554 6.554 0 0 0-.235.054l.128-.03c-.09.02-.178.042-.266.066l.139-.036a6.508 6.508 0 0 0-.663.204l.081-.03c-.08.029-.16.058-.238.09l.157-.06a6.572 6.572 0 0 0-.252.098l.095-.038a6.523 6.523 0 0 0-.761.36l.162-.087a6.447 6.447 0 0 0-.204.11l.042-.023a6.595 6.595 0 0 0-.23.133l.188-.11a6.46 6.46 0 0 0-.225.133l.038-.023a6.59 6.59 0 0 0-.536.363l.092-.068c-.066.048-.13.097-.194.147l.102-.079c-.066.05-.131.1-.196.153l.094-.074c-.086.067-.17.136-.253.208l1.998 1.998a3.734 3.734 0 0 1 2.3-.788c.866 0 1.664.294 2.3.788l1.997-1.998-.16-.134a6.286 6.286 0 0 0-.195-.153l.103.079a6.675 6.675 0 0 0-.194-.146l.09.067a6.566 6.566 0 0 0-.535-.363l.038.023a6.579 6.579 0 0 0-.225-.133l.187.11a6.513 6.513 0 0 0-.229-.133l.042.023a6.608 6.608 0 0 0-.204-.11l.162.087a6.488 6.488 0 0 0-.76-.36l.094.038a6.567 6.567 0 0 0-.252-.098l.157.06a6.541 6.541 0 0 0-.238-.09l.081.03a6.522 6.522 0 0 0-.662-.204l.138.036a6.554 6.554 0 0 0-.266-.067l.128.031a6.514 6.514 0 0 0-.234-.054l.106.023c-.099-.022-.199-.043-.3-.06l.194.037a6.53 6.53 0 0 0-.237-.045l.043.007a6.54 6.54 0 0 0-.296-.046l.253.039a6.576 6.576 0 0 0-.35-.051l.097.012a6.597 6.597 0 0 0-.245-.028l.149.016a6.573 6.573 0 0 0-.265-.026l.116.01a6.607 6.607 0 0 0-.256-.02l.14.01a6.605 6.605 0 0 0-.265-.015l-.247-.005Z"/></svg>
