<svg width="10" height="7" viewBox="0 0 10 7" fill="none" xmlns="http://www.w3.org/2000/svg">
<path d="M0.501861 3.95646C0.634469 3.95646 0.761646 3.90817 0.855414 3.82222C0.949183 3.73626 1.00186 3.61968 1.00186 3.49812V2.31104L4.14686 5.19854C4.19334 5.2415 4.24864 5.2756 4.30957 5.29887C4.3705 5.32214 4.43585 5.33412 4.50186 5.33412C4.56787 5.33412 4.63322 5.32214 4.69415 5.29887C4.75508 5.2756 4.81038 5.2415 4.85686 5.19854L6.50186 3.68604L9.14686 6.11521C9.24101 6.20151 9.36871 6.25 9.50186 6.25C9.63501 6.25 9.76271 6.20151 9.85686 6.11521C9.95101 6.0289 10.0039 5.91185 10.0039 5.78979C10.0039 5.66774 9.95101 5.55068 9.85686 5.46437L6.85686 2.71437C6.81038 2.67142 6.75508 2.63732 6.69415 2.61405C6.63322 2.59078 6.56787 2.5788 6.50186 2.5788C6.43585 2.5788 6.3705 2.59078 6.30957 2.61405C6.24864 2.63732 6.19334 2.67142 6.14686 2.71437L4.50186 4.22687L1.70686 1.66479H3.00186C3.13447 1.66479 3.26165 1.6165 3.35541 1.53055C3.44918 1.4446 3.50186 1.32802 3.50186 1.20646C3.50186 1.0849 3.44918 0.968322 3.35541 0.882368C3.26165 0.796413 3.13447 0.748125 3.00186 0.748125H0.501861C0.436522 0.748849 0.371972 0.761306 0.311861 0.784791C0.189686 0.831301 0.092598 0.920298 0.0418606 1.03229C0.0162401 1.08739 0.00265061 1.14656 0.00186062 1.20646V3.49812C0.00186062 3.61968 0.0545387 3.73626 0.148307 3.82222C0.242075 3.90817 0.369252 3.95646 0.501861 3.95646Z" fill="currentColor"/>
</svg>
