<svg xmlns="http://www.w3.org/2000/svg" fill="none" viewBox="0 0 20 19"><path fill="currentColor" d="M12.636 15.912a8.487 8.487 0 0 1-1.99-.258L9.33 15.34c-3.611-.853-4.794-2.765-3.948-6.368L6.15 5.69c.172-.744.376-1.348.626-1.849 1.348-2.78 3.925-2.53 5.758-2.1l1.308.306c1.833.431 2.992 1.113 3.643 2.154.642 1.042.744 2.382.313 4.215l-.768 3.274c-.673 2.867-2.076 4.222-4.394 4.222ZM10.529 2.65c-1.309 0-2.139.54-2.695 1.7-.204.423-.384.948-.54 1.606l-.768 3.282c-.697 2.961.11 4.254 3.07 4.959l1.316.313c.423.102.823.165 1.183.196 2.131.211 3.188-.72 3.784-3.282l.768-3.275c.352-1.511.305-2.569-.165-3.329-.47-.76-1.394-1.277-2.914-1.63l-1.308-.305c-.65-.156-1.23-.235-1.731-.235Z" /><path fill="currentColor" d="M6.776 17.534c-2.013 0-3.298-1.206-4.12-3.752l-1.003-3.094c-1.112-3.447-.117-5.39 3.314-6.502l1.237-.4c.408-.125.713-.21.987-.258a.567.567 0 0 1 .58.22c.133.18.157.415.063.618-.204.416-.384.94-.533 1.598l-.768 3.283c-.697 2.96.11 4.253 3.071 4.958l1.316.313c.423.102.823.165 1.183.196.25.024.454.196.525.439a.589.589 0 0 1-.235.634c-.517.353-1.167.65-1.99.917l-1.238.407c-.9.282-1.684.423-2.389.423Zm-.43-12.557-1.011.33c-2.797.9-3.462 2.216-2.562 5.02l1.003 3.095c.909 2.796 2.225 3.47 5.021 2.57l1.238-.408.133-.047-.83-.196c-3.611-.854-4.794-2.765-3.948-6.369l.767-3.282a7.83 7.83 0 0 1 .188-.713ZM13.951 8.336c-.047 0-.094-.008-.149-.016l-3.799-.963a.587.587 0 0 1 .29-1.136l3.8.963a.586.586 0 0 1-.141 1.151Z" /><path fill="currentColor" d="M11.658 10.983c-.047 0-.094-.008-.149-.015l-2.28-.58a.587.587 0 0 1 .29-1.136l2.28.58c.314.078.502.4.423.713a.57.57 0 0 1-.564.438Z" /></svg>
