<svg xmlns="http://www.w3.org/2000/svg" fill="none" viewBox="0 0 67 65"><path fill="#E6FFFC" d="M38.594 41c0-10.493-8.507-19-19-19-10.494 0-19 8.507-19 19s8.506 19 19 19c10.493 0 19-8.507 19-19Z"/><path fill="#31BEAF" d="M35 15c9.665 0 17.5 7.835 17.5 17.5 0 9.483-7.542 17.204-16.955 17.492L35 50c-9.665 0-17.5-7.835-17.5-17.5S25.335 15 35 15Zm0 26.25a8.712 8.712 0 0 1-5.364-1.837l-4.663 4.66.371.312a14.934 14.934 0 0 0 .458.358l-.24-.185c.148.117.299.23.452.342l-.212-.157a15.34 15.34 0 0 0 1.25.847l-.088-.053c.172.106.347.21.524.31l-.437-.257c.176.107.354.21.534.31l-.097-.053c.133.074.267.147.402.218l-.305-.164c.182.1.367.198.554.292l.535.256a15.524 15.524 0 0 0 .687.292l-.221-.09c.194.08.39.157.588.23l-.367-.14c.183.072.37.142.556.208l-.189-.068a15.169 15.169 0 0 0 1.545.475l-.321-.084c.205.056.411.108.62.155l-.299-.071c.181.045.363.087.547.126l-.249-.055c.231.053.464.1.7.143l-.451-.088c.182.038.366.074.551.106l-.1-.018c.228.041.459.077.69.108l-.59-.09c.27.046.541.086.815.118l-.225-.028c.19.025.38.047.572.065l-.347-.037c.205.024.411.044.618.06l-.27-.023c.198.019.397.034.598.045l-.328-.021c.21.016.42.028.632.035l-.304-.014c.287.016.577.025.868.025l.564-.01a15.231 15.231 0 0 0 .632-.036l-.328.021c.2-.01.4-.026.6-.045l-.272.023c.207-.015.413-.036.617-.06l-.346.037c.192-.018.382-.04.572-.065l-.226.028c.274-.032.546-.072.816-.118l-.59.09c.232-.03.462-.067.69-.108l-.1.018c.184-.032.368-.068.55-.106l-.45.088c.236-.042.47-.09.7-.143l-.25.055c.184-.039.366-.08.548-.126l-.298.071c.209-.048.415-.1.62-.155l-.322.084a15.185 15.185 0 0 0 1.545-.475l-.189.068c.187-.066.373-.136.556-.208l-.367.14c.198-.073.394-.15.588-.23l-.22.09c.23-.092.46-.19.686-.292l.535-.256a15.718 15.718 0 0 0 .554-.292l-.306.165c.136-.071.27-.144.402-.22l-.096.055c.18-.1.358-.204.534-.31l-.438.256c.178-.1.353-.204.525-.31l-.087.053a15.333 15.333 0 0 0 1.25-.847l-.214.157c.154-.11.305-.225.453-.341l-.24.184c.155-.117.308-.236.458-.358l-.218.174c.2-.157.397-.32.589-.486l-4.66-4.661A8.713 8.713 0 0 1 35 41.25ZM23.427 22.473l-.312.371a14.934 14.934 0 0 0-.358.458l.185-.24c-.117.148-.23.299-.342.452l.157-.212a15.34 15.34 0 0 0-.847 1.25l.053-.088c-.106.172-.21.347-.31.524l.257-.437c-.107.176-.21.354-.31.534l.053-.097c-.088.157-.173.315-.256.475l.203-.378c-.102.182-.2.367-.293.554l-.256.535a15.524 15.524 0 0 0-.292.687l.09-.221c-.08.194-.157.39-.23.588l.14-.367c-.073.183-.142.37-.208.556l.068-.189a15.204 15.204 0 0 0-.546 1.843l.071-.298a15.3 15.3 0 0 0-.12.523l.049-.225a15.269 15.269 0 0 0-.28 1.615l.029-.225c-.025.19-.047.38-.065.572l.037-.347c-.024.205-.044.411-.06.618l.023-.27c-.019.198-.034.397-.045.598l.021-.328c-.015.206-.027.412-.035.62l.014-.292c-.016.287-.024.577-.024.868l.01.577a15.54 15.54 0 0 0 .035.619l-.021-.328c.01.2.026.4.045.6l-.024-.272c.017.207.037.413.06.617l-.036-.346c.018.192.04.382.065.572l-.028-.226a15.262 15.262 0 0 0 .279 1.616l-.055-.25c.038.182.08.362.124.541l-.069-.29c.048.208.1.414.155.619l-.086-.329a15.18 15.18 0 0 0 .464 1.516l-.055-.153c.066.187.136.373.208.556l-.153-.403c.077.21.158.419.243.624l-.09-.22a15.218 15.218 0 0 0 .84 1.775l-.202-.378c.083.16.168.318.256.474l-.053-.096c.1.18.203.358.31.534l-.257-.438c.1.178.204.353.31.525l-.053-.087c.12.197.244.39.372.582l.302.433a15.262 15.262 0 0 0 .337.449l-.164-.214c.117.154.236.307.358.457l-.194-.243c.163.209.332.414.506.614l4.661-4.66A8.713 8.713 0 0 1 26.25 32.5c0-2.022.686-3.885 1.838-5.366l-4.661-4.66Zm23.146 0-4.66 4.663A8.712 8.712 0 0 1 43.75 32.5a8.713 8.713 0 0 1-1.838 5.367l4.661 4.66.312-.371a16.14 16.14 0 0 0 .358-.458l-.164.214c.115-.147.227-.296.337-.448l.302-.433a15.468 15.468 0 0 0 .372-.582l-.053.087c.106-.172.21-.347.31-.524l-.257.437c.107-.176.21-.354.31-.534l-.053.097c.088-.157.173-.315.256-.475l-.203.378a15.367 15.367 0 0 0 .84-1.776l-.089.221c.085-.205.166-.413.243-.623l-.153.402c.072-.184.142-.37.208-.556l-.055.154a15.184 15.184 0 0 0 .463-1.517l-.085.328c.056-.205.108-.411.155-.62l-.07.292c.045-.178.087-.358.125-.54l-.055.249a15.269 15.269 0 0 0 .28-1.615l-.029.225c.025-.19.047-.38.065-.572l-.037.347c.024-.205.044-.411.06-.618l-.023.27c.019-.198.034-.397.045-.598l-.021.328c.016-.21.028-.42.035-.632l-.014.304c.016-.287.025-.577.025-.868l-.01-.564a15.231 15.231 0 0 0-.036-.632l.021.328c-.01-.2-.026-.4-.045-.6l.023.272a15.302 15.302 0 0 0-.06-.617l.037.346c-.018-.192-.04-.382-.065-.572l.028.226a15.235 15.235 0 0 0-.279-1.616l.05.226c-.037-.176-.078-.35-.121-.524l.071.298a15.192 15.192 0 0 0-.546-1.843l.068.189a14.974 14.974 0 0 0-.208-.556l.14.367c-.073-.198-.15-.394-.23-.588l.09.22c-.092-.23-.19-.46-.292-.686l-.256-.535a14.603 14.603 0 0 0-.292-.554l.202.378a15.35 15.35 0 0 0-.256-.475l.053.097c-.1-.18-.203-.358-.31-.534l.257.438c-.1-.178-.204-.353-.31-.525l.053.087a15.333 15.333 0 0 0-.847-1.25l.157.214a15.442 15.442 0 0 0-.341-.454l.184.24a15.32 15.32 0 0 0-.358-.457l.174.217a15.28 15.28 0 0 0-.486-.588ZM35 25.938a6.532 6.532 0 0 0-3.518 1.021l-.284.192-.303.228a6.56 6.56 0 0 0-.307.263l.12-.106a6.56 6.56 0 0 0-.276.252l.156-.146c-.103.093-.203.19-.3.29l.144-.144a6.522 6.522 0 0 0-.286.295l.142-.15c-.087.089-.17.18-.252.275l.11-.125c-.09.1-.177.201-.261.306l.15-.181c-.135.157-.264.32-.384.49l-.192.284a6.532 6.532 0 0 0-1.021 3.518 6.536 6.536 0 0 0 1.73 4.44l-.183-.206c.087.101.176.2.268.297l-.085-.09c.094.102.192.201.292.298l-.207-.208c.098.103.2.204.306.3l-.099-.092c.104.099.21.195.32.287l-.221-.195A6.536 6.536 0 0 0 35 39.062a6.537 6.537 0 0 0 4.412-1.704l-.12.106a6.56 6.56 0 0 0 .276-.252l-.156.146c.103-.093.203-.19.3-.29l-.144.144c.1-.097.196-.197.29-.3l-.146.156c.087-.09.17-.182.252-.276l-.106.12a6.539 6.539 0 0 0 1.705-4.412 6.536 6.536 0 0 0-1.731-4.44l.182.207a6.618 6.618 0 0 0-.273-.305l.09.097a6.656 6.656 0 0 0-.3-.307l.21.21a6.649 6.649 0 0 0-.3-.293l.09.083a6.684 6.684 0 0 0-.267-.24l.177.157a6.676 6.676 0 0 0-.337-.29l-.302-.228-.284-.192A6.532 6.532 0 0 0 35 25.938Zm0-8.75-.577.01a15.54 15.54 0 0 0-.619.035l.328-.021c-.2.01-.4.026-.6.045l.272-.024c-.207.017-.413.037-.617.06l.346-.036c-.192.018-.382.04-.572.065l.226-.028c-.274.032-.546.072-.816.118l.59-.09c-.232.03-.462.067-.69.108l.1-.018c-.184.032-.368.068-.55.106l.45-.088c-.236.042-.47.09-.7.143l.25-.055c-.184.039-.367.08-.548.126l.298-.071a15.2 15.2 0 0 0-.62.155l.322-.084a15.185 15.185 0 0 0-1.544.475l.188-.067c-.187.065-.373.134-.556.207l.367-.14c-.198.073-.394.15-.588.23l.22-.09a15.214 15.214 0 0 0-1.775.84l.378-.202c-.16.083-.318.168-.475.256l.097-.053c-.18.1-.358.203-.534.31l.438-.257c-.178.1-.353.204-.525.31l.087-.053a15.333 15.333 0 0 0-1.25.847l.214-.158c-.154.112-.305.226-.454.343l.24-.185a15.32 15.32 0 0 0-.457.358l.217-.173c-.2.156-.396.318-.588.485l4.66 4.661A8.713 8.713 0 0 1 35 23.75c2.022 0 3.885.686 5.367 1.838l4.66-4.661-.371-.312a14.934 14.934 0 0 0-.458-.358l.24.185c-.148-.117-.299-.23-.452-.342l.212.157a15.34 15.34 0 0 0-1.25-.847l.088.053a15.46 15.46 0 0 0-.524-.31l.437.257c-.176-.107-.354-.21-.534-.31l.097.053a15.245 15.245 0 0 0-.475-.256l.378.203a15.415 15.415 0 0 0-1.776-.84l.221.089c-.194-.08-.39-.157-.588-.23l.367.14a15.21 15.21 0 0 0-.556-.208l.189.068a15.169 15.169 0 0 0-1.545-.475l.321.084a15.18 15.18 0 0 0-.62-.155l.299.071a15.261 15.261 0 0 0-.547-.126l.249.055c-.231-.053-.465-.1-.7-.143l.451.088a15.208 15.208 0 0 0-.551-.106l.1.018a15.394 15.394 0 0 0-.69-.108l.59.09c-.27-.046-.541-.086-.815-.118l.225.028a15.59 15.59 0 0 0-.572-.065l.347.037a15.29 15.29 0 0 0-.618-.06l.27.023a15.508 15.508 0 0 0-.598-.045l.328.021a15.235 15.235 0 0 0-.62-.035l-.576-.01Z"/></svg>
