<svg xmlns="http://www.w3.org/2000/svg" fill="none" viewBox="0 0 66 65"><path fill="#FFEFD2" d="M39.094 41c0-10.493-8.507-19-19-19-10.494 0-19 8.507-19 19s8.506 19 19 19c10.493 0 19-8.507 19-19Z"/><path fill="#292D32" d="M24.25 27.792a1.102 1.102 0 0 1-1.094-1.094V23.78c0-.598.496-1.093 1.094-1.093.598 0 1.094.495 1.094 1.093v2.917c0 .598-.496 1.094-1.094 1.094Z"/><path fill="#292D32" d="M33.001 47.839h-4.375c-7.918 0-11.302-3.384-11.302-11.303v-8.75c0-7.918 3.384-11.302 11.302-11.302h8.75c7.919 0 11.302 3.384 11.302 11.302v4.375c0 .598-.495 1.094-1.093 1.094a1.102 1.102 0 0 1-1.094-1.094v-4.375c0-6.723-2.392-9.114-9.115-9.114h-8.75c-6.723 0-9.114 2.392-9.114 9.114v8.75c0 6.723 2.391 9.115 9.114 9.115h4.375c.598 0 1.094.496 1.094 1.094 0 .598-.496 1.094-1.094 1.094Z"/><path fill="#292D32" d="M30.082 27.792a1.102 1.102 0 0 1-1.094-1.094V23.78c0-.598.496-1.093 1.094-1.093.598 0 1.094.495 1.094 1.093v2.917c0 .598-.496 1.094-1.094 1.094ZM24.25 42.01a1.102 1.102 0 0 1-1.094-1.093V38c0-.598.496-1.094 1.094-1.094.598 0 1.094.496 1.094 1.094v2.917c0 .598-.496 1.093-1.094 1.093ZM30.082 42.01a1.102 1.102 0 0 1-1.094-1.093V38c0-.598.496-1.094 1.094-1.094.598 0 1.094.496 1.094 1.094v2.917c0 .598-.496 1.093-1.094 1.093ZM41.751 26.328h-5.833a1.102 1.102 0 0 1-1.094-1.094c0-.598.496-1.093 1.094-1.093h5.833c.598 0 1.094.496 1.094 1.093 0 .598-.496 1.094-1.094 1.094ZM47.585 33.258H18.418a1.102 1.102 0 0 1-1.094-1.094c0-.598.496-1.094 1.094-1.094h29.167c.598 0 1.093.496 1.093 1.094 0 .598-.495 1.094-1.093 1.094Z"/><path stroke="#292D32" stroke-linecap="round" stroke-linejoin="round" stroke-width="1.5" d="M46.941 44.315a4.725 4.725 0 0 1-4.098 2.362c-2.61 0-4.214-2.625-4.214-2.625m.102-4.462a4.714 4.714 0 0 1 4.112-2.378c3.165 0 4.74 2.625 4.74 2.625m0-2.93v2.916h-2.917m-3.12 4.215h-2.917v2.712"/></svg>
