<svg xmlns="http://www.w3.org/2000/svg" fill="none" viewBox="0 0 65 65"><path fill="#22218C" fill-opacity=".08" d="M41.5 41c0-10.493-8.507-19-19-19s-19 8.507-19 19 8.507 19 19 19 19-8.507 19-19Z"/><path fill="#664EFA" d="M26 22.625c-.615 0-1.125-.51-1.125-1.125V17c0-.615.51-1.125 1.125-1.125s1.125.51 1.125 1.125v4.5c0 .615-.51 1.125-1.125 1.125ZM38 22.625c-.615 0-1.125-.51-1.125-1.125V17c0-.615.51-1.125 1.125-1.125s1.125.51 1.125 1.125v4.5c0 .615-.51 1.125-1.125 1.125ZM26.75 35.75c-.195 0-.39-.045-.57-.12a1.549 1.549 0 0 1-.495-.315 1.577 1.577 0 0 1-.435-1.065c0-.39.165-.78.435-1.065.15-.135.315-.24.495-.315a1.5 1.5 0 0 1 1.14 0c.18.075.345.18.495.315.06.075.135.15.18.225.06.09.105.18.135.27.045.09.075.18.09.27.015.105.03.21.03.3 0 .39-.165.78-.435 1.065-.15.135-.315.24-.495.315-.18.075-.375.12-.57.12ZM32 35.747c-.195 0-.39-.045-.57-.12a1.549 1.549 0 0 1-.495-.315 1.577 1.577 0 0 1-.435-1.065c0-.09.015-.195.03-.3a.953.953 0 0 1 .09-.27c.03-.09.075-.18.135-.27l.18-.225c.555-.555 1.56-.555 2.13 0l.18.225c.06.09.105.18.135.27.045.09.075.18.09.27.015.105.03.21.03.3 0 .39-.165.78-.435 1.065a1.55 1.55 0 0 1-1.065.435ZM26.75 41c-.195 0-.39-.045-.57-.12a1.732 1.732 0 0 1-.495-.315 1.577 1.577 0 0 1-.435-1.065c0-.09.015-.195.03-.285a.905.905 0 0 1 .09-.285c.03-.09.075-.18.135-.27.045-.075.12-.15.18-.225.15-.135.315-.24.495-.315a1.5 1.5 0 0 1 1.14 0c.18.075.345.18.495.315.06.075.135.15.18.225.06.09.105.18.135.27.045.09.075.18.09.285.015.09.03.195.03.285 0 .39-.165.78-.435 1.065-.15.135-.315.24-.495.315-.18.075-.375.12-.57.12ZM44.75 28.758h-25.5c-.615 0-1.125-.51-1.125-1.125s.51-1.125 1.125-1.125h25.5c.615 0 1.125.51 1.125 1.125s-.51 1.125-1.125 1.125ZM37.73 48.172c-.57 0-1.11-.21-1.5-.6-.466-.465-.676-1.14-.57-1.845l.284-2.025a2.97 2.97 0 0 1 .765-1.53l5.31-5.31c.72-.72 1.425-1.095 2.19-1.17.945-.09 1.86.3 2.73 1.17.915.915 2.145 2.775 0 4.92l-5.31 5.31a2.971 2.971 0 0 1-1.53.765l-2.025.285c-.12.015-.225.03-.345.03Zm6.734-10.245h-.045c-.21.015-.495.21-.81.525l-5.31 5.31a.571.571 0 0 0-.12.255l-.27 1.875 1.875-.27c.06-.015.21-.09.255-.135l5.31-5.31c.66-.66.75-.99 0-1.74-.24-.225-.585-.51-.885-.51Z"/><path fill="#664EFA" d="M45.38 42.873a.967.967 0 0 1-.3-.045 5.966 5.966 0 0 1-4.11-4.11 1.14 1.14 0 0 1 .78-1.396 1.14 1.14 0 0 1 1.396.78 3.698 3.698 0 0 0 2.55 2.55c.6.165.945.795.78 1.395-.15.495-.6.826-1.095.826Z"/><path fill="#664EFA" d="M32 48.125h-6c-5.475 0-8.625-3.15-8.625-8.625V26.75c0-5.475 3.15-8.625 8.625-8.625h12c5.475 0 8.625 3.15 8.625 8.625V32c0 .615-.51 1.125-1.125 1.125s-1.125-.51-1.125-1.125v-5.25c0-4.29-2.085-6.375-6.375-6.375H26c-4.29 0-6.375 2.085-6.375 6.375V39.5c0 4.29 2.085 6.375 6.375 6.375h6c.615 0 1.125.51 1.125 1.125s-.51 1.125-1.125 1.125Z"/></svg>
