<svg xmlns="http://www.w3.org/2000/svg" fill="none" viewBox="0 0 68 65"><path fill="#E9EEE0" d="M38.594 41c0-10.493-8.507-19-19-19-10.494 0-19 8.507-19 19s8.506 19 19 19c10.493 0 19-8.507 19-19Z"/><path fill="#688137" d="M46.173 30.34H24.838a5.01 5.01 0 0 1-5.002-5.003v-3.835a5.01 5.01 0 0 1 5.002-5.002h21.335a5.01 5.01 0 0 1 5.002 5.002v3.835a5.01 5.01 0 0 1-5.002 5.003Zm-21.35-11.667a2.816 2.816 0 0 0-2.814 2.815v3.835a2.816 2.816 0 0 0 2.814 2.814H46.16a2.816 2.816 0 0 0 2.815-2.814v-3.835a2.816 2.816 0 0 0-2.815-2.815H24.823ZM46.173 47.84H24.838a5.01 5.01 0 0 1-5.002-5.003v-3.835A5.01 5.01 0 0 1 24.838 34h21.335a5.01 5.01 0 0 1 5.002 5.002v3.835a5.01 5.01 0 0 1-5.002 5.003Zm-21.35-11.667a2.816 2.816 0 0 0-2.814 2.814v3.836a2.816 2.816 0 0 0 2.814 2.815H46.16a2.816 2.816 0 0 0 2.815-2.815v-3.836a2.816 2.816 0 0 0-2.815-2.814H24.823Z"/><path fill="#688137" d="M26.75 25.963a1.102 1.102 0 0 1-1.094-1.093v-2.917c0-.598.496-1.094 1.094-1.094.598 0 1.094.496 1.094 1.094v2.917c0 .598-.496 1.093-1.094 1.093ZM32.582 25.963a1.102 1.102 0 0 1-1.094-1.093v-2.917c0-.598.496-1.094 1.094-1.094.598 0 1.094.496 1.094 1.094v2.917c0 .598-.496 1.093-1.094 1.093ZM26.75 43.464a1.102 1.102 0 0 1-1.094-1.094v-2.917c0-.598.496-1.094 1.094-1.094.598 0 1.094.496 1.094 1.094v2.917c0 .598-.496 1.094-1.094 1.094ZM32.582 43.464a1.102 1.102 0 0 1-1.094-1.094v-2.917c0-.598.496-1.094 1.094-1.094.598 0 1.094.496 1.094 1.094v2.917c0 .598-.496 1.094-1.094 1.094ZM44.251 24.508h-5.833a1.102 1.102 0 0 1-1.094-1.094c0-.598.496-1.094 1.094-1.094h5.833c.598 0 1.094.496 1.094 1.094 0 .598-.496 1.094-1.094 1.094ZM44.251 42.008h-5.833a1.102 1.102 0 0 1-1.094-1.094c0-.598.496-1.094 1.094-1.094h5.833c.598 0 1.094.496 1.094 1.094 0 .598-.496 1.094-1.094 1.094Z"/></svg>
