<svg width="60" height="60" viewBox="0 0 60 60" fill="none" xmlns="http://www.w3.org/2000/svg">
<rect stroke="currentColor"/>
<rect x="0.648438" y="0.625" width="58.7486" height="58.7486" rx="29.3743" fill="#15B786" fill-opacity="0.05"/>
<rect x="0.648438" y="0.625" width="58.7486" height="58.7486" rx="29.3743" stroke="#15B786" />
<circle cx="27.0156" cy="24.625" r="3.625" stroke="#15B786" stroke-linecap="round"/>
<path d="M32.0342 25.2188C32.4237 24.5441 33.0653 24.0517 33.8178 23.8501C34.5704 23.6485 35.3722 23.754 36.0469 24.1436C36.7216 24.5331 37.2139 25.1747 37.4155 25.9272C37.6172 26.6797 37.5116 27.4816 37.1221 28.1562C36.7325 28.8309 36.0909 29.3233 35.3384 29.5249C34.5859 29.7265 33.7841 29.621 33.1094 29.2314C32.4347 28.8419 31.9424 28.2003 31.7407 27.4478C31.5391 26.6953 31.6446 25.8934 32.0342 25.2188L32.0342 25.2188Z" stroke="#15B786"/>
<path d="M34.5014 38.0668L34.0054 38.1297L34.5014 38.0668ZM33.5786 38.5625H20.4536V39.5625H33.5786V38.5625ZM20.0267 38.1297C20.1615 37.0677 20.5372 35.3488 21.5642 33.9067C22.572 32.4916 24.2257 31.3125 27.0161 31.3125V30.3125C23.884 30.3125 21.9342 31.6632 20.7496 33.3266C19.5842 34.9631 19.1784 36.8713 19.0347 38.0038L20.0267 38.1297ZM27.0161 31.3125C29.8065 31.3125 31.4601 32.4916 32.4679 33.9067C33.4949 35.3488 33.8706 37.0677 34.0054 38.1297L34.9974 38.0038C34.8537 36.8713 34.4479 34.9631 33.2825 33.3266C32.0979 31.6633 30.1481 30.3125 27.0161 30.3125V31.3125ZM20.4536 38.5625C20.1672 38.5625 19.9994 38.345 20.0267 38.1297L19.0347 38.0038C18.9229 38.8844 19.6354 39.5625 20.4536 39.5625V38.5625ZM33.5786 39.5625C34.3967 39.5625 35.1092 38.8844 34.9974 38.0038L34.0054 38.1297C34.0327 38.345 33.865 38.5625 33.5786 38.5625V39.5625Z" fill="#15B786"/>
<path d="M39.8936 37.9743L39.405 38.0807L39.8936 37.9743ZM32.2422 32.8486L31.9743 32.4264L31.4591 32.7533L31.8809 33.1942L32.2422 32.8486ZM34.5021 38.0668L34.9981 38.0038L34.5021 38.0668ZM38.9743 38.5625H33.5792V39.5625H38.9743V38.5625ZM39.405 38.0807C39.456 38.3148 39.2807 38.5625 38.9743 38.5625V39.5625C39.851 39.5625 40.5829 38.7899 40.3821 37.8679L39.405 38.0807ZM34.5793 32.6875C36.167 32.6875 37.2528 33.5235 38.016 34.6368C38.7884 35.7634 39.1996 37.1372 39.405 38.0807L40.3821 37.8679C40.1655 36.8731 39.7198 35.3535 38.8408 34.0713C37.9525 32.7757 36.5923 31.6875 34.5793 31.6875V32.6875ZM32.5101 33.2707C33.0755 32.912 33.7538 32.6875 34.5793 32.6875V31.6875C33.5597 31.6875 32.6961 31.9683 31.9743 32.4264L32.5101 33.2707ZM31.8809 33.1942C33.3564 34.7366 33.8471 36.8774 34.0061 38.1297L34.9981 38.0038C34.8304 36.6825 34.3028 34.2792 32.6035 32.5029L31.8809 33.1942ZM34.0061 38.1297C34.0334 38.345 33.8656 38.5625 33.5792 38.5625V39.5625C34.3974 39.5625 35.1099 38.8844 34.9981 38.0038L34.0061 38.1297Z" fill="#15B786"/>
</svg>
