<svg width="60" height="60" viewBox="0 0 60 60" fill="none" xmlns="http://www.w3.org/2000/svg">
<rect stroke="currentColor"/>
<rect x="0.675781" y="0.625" width="58.7486" height="58.7486" rx="29.3743" fill="#E9EEE0"/>
<rect x="0.675781" y="0.625" width="58.7486" height="58.7486" rx="29.3743" stroke="#688137" />
<path d="M38.9845 28.5395H21.5804C19.332 28.5395 17.5 26.7075 17.5 24.4591V21.3304C17.5 19.082 19.332 17.25 21.5804 17.25H38.9845C41.2329 17.25 43.0649 19.082 43.0649 21.3304V24.4591C43.0649 26.7075 41.2329 28.5395 38.9845 28.5395ZM21.5685 19.0225C20.2956 19.0225 19.2725 20.0575 19.2725 21.3185V24.4472C19.2725 25.7201 20.3075 26.7431 21.5685 26.7431H38.9726C40.2455 26.7431 41.2685 25.7082 41.2685 24.4472V21.3185C41.2685 20.0456 40.2336 19.0225 38.9726 19.0225H21.5685Z" fill="#688137"/>
<path d="M38.9845 42.8129H21.5804C19.332 42.8129 17.5 40.9809 17.5 38.7325V35.6038C17.5 33.3555 19.332 31.5234 21.5804 31.5234H38.9845C41.2329 31.5234 43.0649 33.3555 43.0649 35.6038V38.7325C43.0649 40.9809 41.2329 42.8129 38.9845 42.8129ZM21.5685 33.296C20.2956 33.296 19.2725 34.3309 19.2725 35.5919V38.7206C19.2725 39.9935 20.3075 41.0166 21.5685 41.0166H38.9726C40.2455 41.0166 41.2685 39.9816 41.2685 38.7206V35.5919C41.2685 34.319 40.2336 33.296 38.9726 33.296H21.5685Z" fill="#688137"/>
<path d="M23.1383 24.9683C22.6506 24.9683 22.2461 24.5639 22.2461 24.0761V21.6969C22.2461 21.2092 22.6506 20.8047 23.1383 20.8047C23.626 20.8047 24.0305 21.2092 24.0305 21.6969V24.0761C24.0305 24.5639 23.626 24.9683 23.1383 24.9683Z" fill="#688137"/>
<path d="M27.8961 24.9683C27.4084 24.9683 27.0039 24.5639 27.0039 24.0761V21.6969C27.0039 21.2092 27.4084 20.8047 27.8961 20.8047C28.3839 20.8047 28.7883 21.2092 28.7883 21.6969V24.0761C28.7883 24.5639 28.3839 24.9683 27.8961 24.9683Z" fill="#688137"/>
<path d="M23.1383 39.2418C22.6506 39.2418 22.2461 38.8373 22.2461 38.3496V35.9703C22.2461 35.4826 22.6506 35.0781 23.1383 35.0781C23.626 35.0781 24.0305 35.4826 24.0305 35.9703V38.3496C24.0305 38.8373 23.626 39.2418 23.1383 39.2418Z" fill="#688137"/>
<path d="M27.8961 39.2418C27.4084 39.2418 27.0039 38.8373 27.0039 38.3496V35.9703C27.0039 35.4826 27.4084 35.0781 27.8961 35.0781C28.3839 35.0781 28.7883 35.4826 28.7883 35.9703V38.3496C28.7883 38.8373 28.3839 39.2418 27.8961 39.2418Z" fill="#688137"/>
<path d="M37.4124 23.7766H32.6539C32.1662 23.7766 31.7617 23.3721 31.7617 22.8844C31.7617 22.3967 32.1662 21.9922 32.6539 21.9922H37.4124C37.9001 21.9922 38.3046 22.3967 38.3046 22.8844C38.3046 23.3721 37.9001 23.7766 37.4124 23.7766Z" fill="#688137"/>
<path d="M37.4124 38.0579H32.6539C32.1662 38.0579 31.7617 37.6534 31.7617 37.1656C31.7617 36.6779 32.1662 36.2734 32.6539 36.2734H37.4124C37.9001 36.2734 38.3046 36.6779 38.3046 37.1656C38.3046 37.6534 37.9001 38.0579 37.4124 38.0579Z" fill="#688137"/>
</svg>
