<svg width="61" height="61" viewBox="0 0 61 61" fill="none" xmlns="http://www.w3.org/2000/svg">
<rect stroke="currentColor"/>
<rect x="0.703125" y="0.65625" width="59.1844" height="59.1844" rx="29.5922" fill="#22218C" fill-opacity="0.05"/>
<rect x="0.703125" y="0.65625" width="59.1844" height="59.1844" rx="29.5922" stroke="#091F4A" />
<path d="M21.6016 22.0926C21.6016 20.9691 21.6016 20.4073 21.8202 19.9782C22.0126 19.6007 22.3195 19.2938 22.6969 19.1015C23.1261 18.8828 23.6878 18.8828 24.8114 18.8828H30.9714C31.4621 18.8828 31.7075 18.8828 31.9384 18.9382C32.1431 18.9874 32.3387 19.0684 32.5182 19.1784C32.7207 19.3025 32.8942 19.476 33.2411 19.823L38.048 24.6298C38.395 24.9768 38.5685 25.1503 38.6925 25.3527C38.8025 25.5322 38.8836 25.7279 38.9327 25.9326C38.9882 26.1635 38.9882 26.4088 38.9882 26.8995V38.4093C38.9882 39.5328 38.9882 40.0946 38.7695 40.5238C38.5772 40.9012 38.2703 41.2081 37.8928 41.4005C37.4636 41.6191 36.9019 41.6191 35.7783 41.6191H24.8114C23.6878 41.6191 23.1261 41.6191 22.6969 41.4005C22.3195 41.2081 22.0126 40.9012 21.8202 40.5238C21.6016 40.0946 21.6016 39.5328 21.6016 38.4093V22.0926Z" stroke="#091F4A" stroke-width="1.33743"/>
<path d="M25.4219 30.9453L35.174 30.9453" stroke="#091F4A" stroke-width="1.33743" stroke-linecap="round"/>
<path d="M25.4219 35.125L30.9945 35.125" stroke="#091F4A" stroke-width="1.33743" stroke-linecap="round"/>
<path d="M30.9922 18.4062V23.5554C30.9922 24.6789 30.9922 25.2407 31.2108 25.6698C31.4032 26.0473 31.7101 26.3542 32.0876 26.5465C32.5167 26.7652 33.0785 26.7652 34.202 26.7652H39.3511" stroke="#091F4A" stroke-width="1.33743"/>
</svg>
