<svg width="61" height="61" viewBox="0 0 61 61" fill="none" xmlns="http://www.w3.org/2000/svg">
<rect stroke="currentColor"/>
<rect x="0.648438" y="0.65625" width="59.1844" height="59.1844" rx="29.5922" fill="#FFB74D" fill-opacity="0.1"/>
<rect x="0.648438" y="0.65625" width="59.1844" height="59.1844" rx="29.5922" stroke="#FFC976"/>
<path d="M21.5469 22.0926C21.5469 20.9691 21.5469 20.4073 21.7655 19.9782C21.9579 19.6007 22.2648 19.2938 22.6422 19.1015C23.0714 18.8828 23.6332 18.8828 24.7567 18.8828H30.9168C31.4074 18.8828 31.6528 18.8828 31.8837 18.9382C32.0884 18.9874 32.2841 19.0684 32.4636 19.1784C32.666 19.3025 32.8395 19.476 33.1865 19.823L37.9933 24.6298C38.3403 24.9768 38.5138 25.1503 38.6378 25.3527C38.7478 25.5322 38.8289 25.7279 38.878 25.9326C38.9335 26.1635 38.9335 26.4088 38.9335 26.8995V38.4093C38.9335 39.5328 38.9335 40.0946 38.7148 40.5238C38.5225 40.9012 38.2156 41.2081 37.8381 41.4005C37.409 41.6191 36.8472 41.6191 35.7236 41.6191H24.7567C23.6332 41.6191 23.0714 41.6191 22.6422 41.4005C22.2648 41.2081 21.9579 40.9012 21.7655 40.5238C21.5469 40.0946 21.5469 39.5328 21.5469 38.4093V22.0926Z" stroke="#FFB74D" stroke-width="1.33743"/>
<path d="M25.3672 30.9453L35.1193 30.9453" stroke="#FFB74D" stroke-width="1.33743" stroke-linecap="round"/>
<path d="M25.3672 35.125L30.9398 35.125" stroke="#FFB74D" stroke-width="1.33743" stroke-linecap="round"/>
<path d="M30.9375 18.4062V23.5554C30.9375 24.6789 30.9375 25.2407 31.1562 25.6698C31.3485 26.0473 31.6554 26.3542 32.0329 26.5465C32.462 26.7652 33.0238 26.7652 34.1473 26.7652H39.2964" stroke="#FFB74D" stroke-width="1.33743"/>
</svg>
