<svg width="60" height="61" viewBox="0 0 60 61" fill="none" xmlns="http://www.w3.org/2000/svg">
<rect stroke="currentColor"/>
<rect x="0.675781" y="0.914062" width="58.6706" height="58.6706" rx="29.3353" fill="#15B786" fill-opacity="0.05"/>
<rect x="0.675781" y="0.914062" width="58.6706" height="58.6706" rx="29.3353" stroke="#15B786"/>
<path d="M25.3854 27.1693L30.8102 31.2378C31.2287 31.5517 31.8183 31.49 32.1628 31.0964L42.3438 19.4609" stroke="#15B786" stroke-linecap="round"/>
<path d="M43.8867 30.25C43.8867 33.1491 42.9786 35.9754 41.29 38.3319C39.6013 40.6884 37.2169 42.4568 34.4717 43.3887C31.7265 44.3205 28.7583 44.3691 25.984 43.5275C23.2098 42.686 20.7688 40.9966 19.0039 38.6966C17.2391 36.3966 16.239 33.6015 16.1441 30.704C16.0493 27.8064 16.8644 24.952 18.4751 22.5415C20.0857 20.131 22.411 18.2855 25.1242 17.2643C27.8375 16.2431 30.8025 16.0974 33.6028 16.8478" stroke="#15B786" stroke-linecap="round"/>
</svg>
