<svg xmlns="http://www.w3.org/2000/svg" fill="none" viewBox="0 0 44 44"><rect width="44" height="44" fill="#FF9361" fill-opacity=".1" rx="22"/><path fill="#FF9361" d="M17 12c-1.65 0-3 1.334-3 2.977v14.685c0 1.643 1.35 2.977 3 2.977h5.926a.53.53 0 0 0 0-1.059H17c-1.087 0-1.941-.849-1.941-1.918V14.977c0-1.07.854-1.918 1.941-1.918h9.877c1.087 0 1.941.848 1.941 1.918v8.136a.529.529 0 1 0 1.057 0v-8.136c0-1.643-1.349-2.977-2.998-2.977H17Z"/><path fill="#FF9361" d="M17.967 16.234a.53.53 0 1 0 0 1.057h7.937a.529.529 0 1 0 0-1.057h-7.937ZM17.959 22.586a.53.53 0 0 0 0 1.059h5.963a.529.529 0 1 0 0-1.06h-5.963ZM17.967 19.406a.528.528 0 0 0-.49.732.528.528 0 0 0 .49.327h7.937a.528.528 0 0 0 .203-1.018.528.528 0 0 0-.203-.04h-7.937ZM26.703 24.172a4.241 4.241 0 0 0-4.234 4.232 4.243 4.243 0 0 0 4.234 4.235 4.241 4.241 0 0 0 4.233-4.235 4.24 4.24 0 0 0-4.233-4.232Zm0 1.056a3.167 3.167 0 0 1 3.174 3.176 3.167 3.167 0 0 1-3.174 3.176 3.168 3.168 0 0 1-3.176-3.176 3.168 3.168 0 0 1 3.176-3.175Z"/><path fill="#FF9361" d="M26.17 26.813a.53.53 0 0 0-.53.529v1.588a.53.53 0 0 0 .53.529h1.588a.53.53 0 0 0 0-1.059h-1.059v-1.058a.53.53 0 0 0-.53-.53Z"/></svg>
